PathFileType	4	(X/Y/Z)	40_2_44_p0_0-487_filt_butterworth.trc
DataRate	CameraRate	NumFrames	NumMarkers	Units	OrigDataRate	OrigDataStartFrame	OrigNumFrames
59.0	59.0	6	27	m	59.0	60	487
Frame#	Time	RHip			RKnee			RAnkle			RBigToe			RSmallToe			RHeel			LHip			LKnee			LAnkle			LBigToe			LSmallToe			LHeel			Neck			Head			Nose			RShoulder			RElbow			RWrist			RThumb			RIndex			RPinky			LShoulder			LElbow			LWrist			LThumb			LIndex			LPinky			
		X1	Y1	Z1	X2	Y2	Z2	X3	Y3	Z3	X4	Y4	Z4	X5	Y5	Z5	X6	Y6	Z6	X7	Y7	Z7	X8	Y8	Z8	X9	Y9	Z9	X10	Y10	Z10	X11	Y11	Z11	X12	Y12	Z12	X13	Y13	Z13	X14	Y14	Z14	X15	Y15	Z15	X16	Y16	Z16	X17	Y17	Z17	X18	Y18	Z18	X19	Y19	Z19	X20	Y20	Z20	X21	Y21	Z21	X22	Y22	Z22	X23	Y23	Z23	X24	Y24	Z24	X25	Y25	Z25	X26	Y26	Z26	X27	Y27	Z27	
60	1.0169491525423728	0.35377244610701886	0.5990692736695182	0.8871979870022935	0.3140607864296454	0.7092072760816771	1.2995637417971175	0.30690953018511113	0.8159171351002402	1.6842402851677423	0.2944617356308769	0.6334091804742206	1.6960586391343886	0.350450498027528	0.6831326628684429	1.709788144994453	0.2819726669292395	0.9483630432624379	1.7785333350939658	0.1388056935797681	0.581061050598764	0.8853072647519203	0.1313685231781371	0.7270998838357882	1.3108436383905602	0.11320729893754868	0.849643360812106	1.7108212014884012	0.1530731144253441	0.6334864134476197	1.6900051661104218	0.11682151423974378	0.6502989847173964	1.7000048056336432	0.11933468398835072	0.9100504185324961	1.7518308988876397	0.25746803229621035	0.4698911976710708	0.3435549278109312	0.25918554782102354	0.41935279164379685	0.10941935286389295	0.2608303885059954	0.3316669200813323	0.22663135541618362	0.402370289610141	0.4930358713961457	0.4406817670156703	0.45673515713677226	0.5694343358692383	0.6684018816157075	0.4718426982968972	0.5922209342228001	0.9263927932258526	0.39610398666512164	0.5823085221687551	1.0451399603624532	0.40235181978754964	0.6092199736117521	1.0733889800053418	0.4191980022523534	0.6530049686501078	1.082853222252409	0.08144088788922296	0.47438803651106637	0.42886294570884503	0.0289180552537242	0.5622714838195613	0.7031895435728278	0.01722121339954455	0.6004064444535502	0.9332246812242903	0.07929701808115765	0.581129743219394	1.0220629774638024	0.06898912044661419	0.5711700935900842	1.048282864701754	0.028365727964147103	0.6020678198636009	1.0484046156864493
61	1.0338983050847457	0.3539383139432538	0.5988377688162808	0.887120746641245	0.31414619986704606	0.7095147906279489	1.2995672916344982	0.3068038891177303	0.81606473956346	1.684747571388285	0.2947598737222213	0.6335190451726752	1.6945047169281826	0.3511552189196114	0.6814028806303137	1.7091273936923779	0.2821174455428983	0.9479931747413701	1.7797230906325303	0.13867628408945015	0.5811508658636502	0.8840141992078886	0.13199376199517818	0.7260516576909791	1.310008495404532	0.11316186976315225	0.8496147169994115	1.7108635820922085	0.15427461074653886	0.6306875151996432	1.68961137728266	0.11750276431599524	0.6487400999872389	1.699440588468424	0.11939954266521216	0.9098056565714068	1.753424493278965	0.25746617164314617	0.4698363848344924	0.34357422407391075	0.25926168859462845	0.41961909177289136	0.10937224165257414	0.2608678835980327	0.3317440496378157	0.22664571236158065	0.40234557900661627	0.49304742055891376	0.44084443440597076	0.45585672839045716	0.5655568814213454	0.66719288093506	0.47156367808019717	0.5918705626981621	0.9252568769074181	0.3958093691691237	0.5809218749097469	1.043513597666175	0.40225673797809003	0.6090820664403199	1.0733749248828757	0.4175910727564622	0.6525528716048911	1.0812882530864862	0.08151504300283446	0.47479009603400546	0.42882145836878227	0.0289096264088425	0.5621973317188012	0.7031100776699334	0.017206148402793987	0.6006756511351248	0.9334556827242233	0.07928627497211481	0.5814332325571568	1.0221491491473491	0.06900057205570745	0.5716382770048836	1.0489222175079531	0.028266033249879394	0.6016206620179759	1.0482112705562665
62	1.0508474576271187	0.3541196111241959	0.5987001047699286	0.8870529812205161	0.3142572894959056	0.7099243314540963	1.2995070680277434	0.3065151670906131	0.8164259922584634	1.6859614378576997	0.2956701197623006	0.6337534901353853	1.6932598555065161	0.35129512150056597	0.6814498994255757	1.7091241178011218	0.2821545571012598	0.9480283027954571	1.7802444394375267	0.13864287584106483	0.581090548111914	0.8836299199035924	0.1315033200075243	0.7272584381273082	1.309602728535189	0.1131407739348782	0.8495584518147427	1.7108455935405773	0.15634394616612213	0.6257897925626824	1.689196429769119	0.11949210644511075	0.644581630879949	1.6967995862389897	0.11944265293816708	0.9096166946545078	1.7546137021617063	0.2574707024994379	0.469783243588065	0.3435935865254165	0.2592630038783944	0.41957709919140146	0.10938763636343452	0.26093604579951	0.3317540833648342	0.22667847719596887	0.4022925122607729	0.4930393103657151	0.4404976635613509	0.45542393780095247	0.5636074389757627	0.6658214205525441	0.47035981426804363	0.5920925779327952	0.9265666468280889	0.39577280181773	0.5807656475782027	1.0436825770383635	0.4020339771759688	0.6087224529147753	1.0734268783480436	0.41626182917243437	0.6541793422812476	1.0798725517571193	0.08153723420355331	0.4753047238783655	0.428600660377363	0.028916364647480076	0.5621312435631904	0.7030967162321008	0.017226138936363662	0.601423961338969	0.9343617663985262	0.07929170025017586	0.5820774715567664	1.0226035871375065	0.06891703655785125	0.5736363633504098	1.0500581276247976	0.028206641207222227	0.6014561043424678	1.047770774794719
63	1.0677966101694916	0.3541667033286323	0.5988248693655233	0.8870285968596324	0.3142878230554421	0.7100889286681002	1.2994137151280196	0.306121128536118	0.8168976492899478	1.6875889619565216	0.29698454137926333	0.6341521693687788	1.6928793794402348	0.35127558870696257	0.6819285066821684	1.7092808967105548	0.2821294087346079	0.9482498137664472	1.7803062557922666	0.13869209395145696	0.5808598799984185	0.8835917090224091	0.13109852622676837	0.7281384273142653	1.3090782492945945	0.11314633988570613	0.849519045666645	1.7108196920256862	0.158013603130498	0.6217509688284589	1.689041665785226	0.12205922504604137	0.639107577414406	1.6935627253839494	0.11945666789027592	0.9096051498558805	1.7551306247010887	0.2574829158376991	0.4697899205935049	0.3436137869615695	0.2590179738355235	0.4183721835429054	0.10960073689248177	0.2610127497547694	0.33171835172477837	0.2267222540753602	0.402199430435767	0.4930304691983515	0.4395471795067861	0.4553146431350986	0.563119807328109	0.6648467586411264	0.46878358680493815	0.5934753585940182	0.9283452485659212	0.39579926378893526	0.5807712005120663	1.0453387536106415	0.4018035862730658	0.6082230664882318	1.0733836479232326	0.4156168028453456	0.6573900856996713	1.079259030046067	0.08149971996871205	0.4756734945125966	0.42831234752593084	0.028943354583283565	0.5620857813052922	0.7031006190223702	0.017280683214522117	0.6023659818537794	0.9357443035092059	0.07934876479166109	0.5831389057662297	1.023734281465075	0.06879654943564206	0.5781611501698494	1.0527662769459067	0.028241573302673104	0.6013835568512341	1.0471958251829392
64	1.0847457627118644	0.35422377277946493	0.5987905981975353	0.886998942643338	0.31416972363950996	0.7097780275301331	1.2993077819720902	0.3058124035717842	0.8172508838486837	1.688883453421445	0.29806120269336944	0.6345654212012175	1.693066522339183	0.3512623952001179	0.6822522166121651	1.7093860374475651	0.2820763398189366	0.9482834342037227	1.7800759759056297	0.138804559392263	0.5805403894715591	0.8832934370673342	0.13217879868848414	0.7257245350211562	1.308454501953495	0.11316811699121758	0.8495333690130189	1.710806091375921	0.15868690646987615	0.620080520612015	1.6891812557040522	0.12398133801338063	0.6348561149939072	1.6914084087856147	0.11948016118084245	0.9097957602100948	1.7552584484894238	0.25750839708508244	0.4699327942085129	0.343628462101082	0.25841719149237363	0.41537976659261405	0.11009805178700274	0.2610732189501254	0.33165142886033705	0.22676069682505676	0.4020871946033846	0.4930351574860654	0.4383171002725528	0.45533371471021283	0.5632318218171647	0.6644817964490587	0.46752327166090474	0.597288790274955	0.9292802030044501	0.39584198372817353	0.5809083143594008	1.0474317699865703	0.40164298342150845	0.6077775324459603	1.0730101276490043	0.4161419583295164	0.6605473763204633	1.079346273752962	0.08143866844837394	0.4758027885214541	0.4281266909232139	0.028979670153109066	0.5620487419162883	0.7031044070432331	0.01734677720615405	0.6030443711679679	0.937081400014339	0.07949127680053046	0.5842808407021777	1.0256159209839513	0.06867313434040802	0.5837536510406811	1.0563328147894806	0.028353859473392237	0.6012461953050684	1.0469899122216224
65	1.1016949152542372	0.354772006205289	0.5974074524265198	0.8868268806184397	0.313983453174224	0.7092281851078884	1.2992083982729106	0.305706734079806	0.8173506524136367	1.689357957029291	0.29851102174568905	0.6345994280121965	1.6932741413792876	0.3512467023917027	0.6824086568583014	1.7094273024606506	0.2819680571566523	0.9478249119693578	1.7793219355972978	0.13897374461494058	0.580275143197096	0.8825792031826728	0.13439115939539725	0.7208236468328447	1.3080693373277072	0.113191478451245	0.8495954984218185	1.710779345297437	0.15868726371955688	0.6201332433753375	1.689477222603785	0.1247997753863523	0.6329962063152994	1.6906429372429934	0.11952004962787202	0.9100538308368615	1.755249226990745	0.25754796439710936	0.4701894764607349	0.34363228152923153	0.257731984879355	0.4115131679668766	0.1107224677270422	0.2611042051144956	0.3315527464821219	0.22678168309105962	0.40200593396513556	0.4930350890458435	0.4374077449230709	0.45536506362526347	0.5634070245321122	0.664500876738868	0.46685735559615893	0.6028326352742528	0.9296249343115895	0.39609272887203983	0.5822011583489909	1.049000745401068	0.4015519467374405	0.607556359819247	1.0723863140925292	0.417639797477808	0.6624948697356248	1.0796554490375034	0.08140536276770119	0.4757915414347265	0.4284022139124434	0.02899947728785079	0.5620132250285278	0.7031310630072898	0.017397363000499152	0.6033298623864493	0.9380006769033777	0.0796696760646002	0.5850175716625564	1.0281094492370284	0.0685590339953129	0.5878988003552706	1.059846623347772	0.02849119733108079	0.6011715623184584	1.0477919317732451
